<?xml version="1.0" encoding="UTF-8" standalone="no"?>
<!DOCTYPE svg PUBLIC "-//W3C//DTD SVG 1.1//EN"
 "http://www.w3.org/Graphics/SVG/1.1/DTD/svg11.dtd">
<!-- Generated by graphviz version 2.40.1 (20161225.0304)
 -->
<!-- Title: %3 Pages: 1 -->
<svg width="158pt" height="188pt"
 viewBox="0.00 0.00 158.00 188.00" xmlns="http://www.w3.org/2000/svg" xmlns:xlink="http://www.w3.org/1999/xlink">
<g id="graph0" class="graph" transform="scale(1 1) rotate(0) translate(4 184)">
<title>%3</title>
<polygon fill="#ffffff" stroke="transparent" points="-4,4 -4,-184 154,-184 154,4 -4,4"/>
<!-- 短信应用 -->
<g id="node1" class="node">
<title>短信应用</title>
<polygon fill="#b2dfee" stroke="#b2dfee" points="115.5,-180 41.5,-180 41.5,-144 115.5,-144 115.5,-180"/>
<text text-anchor="middle" x="78.5" y="-158.3" font-family="Times,serif" font-size="14.00" fill="#000000">短信应用</text>
</g>
<!-- ToB前台 -->
<g id="node2" class="node">
<title>ToB前台</title>
<polygon fill="#b2dfee" stroke="#b2dfee" points="73,-108 0,-108 0,-72 73,-72 73,-108"/>
<text text-anchor="middle" x="36.5" y="-86.3" font-family="Times,serif" font-size="14.00" fill="#000000">ToB前台</text>
</g>
<!-- 短信应用&#45;&gt;ToB前台 -->
<g id="edge1" class="edge">
<title>短信应用&#45;&gt;ToB前台</title>
<path fill="none" stroke="#000000" d="M67.9016,-143.8314C63.2123,-135.7925 57.5972,-126.1666 52.4202,-117.2918"/>
<polygon fill="#000000" stroke="#000000" points="55.3031,-115.2875 47.2411,-108.4133 49.2566,-118.8146 55.3031,-115.2875"/>
</g>
<!-- 数据库 -->
<g id="node3" class="node">
<title>数据库</title>
<polygon fill="#b2dfee" stroke="#b2dfee" points="150,-108 91,-108 91,-72 150,-72 150,-108"/>
<text text-anchor="middle" x="120.5" y="-86.3" font-family="Times,serif" font-size="14.00" fill="#000000">数据库</text>
</g>
<!-- 短信应用&#45;&gt;数据库 -->
<g id="edge2" class="edge">
<title>短信应用&#45;&gt;数据库</title>
<path fill="none" stroke="#000000" d="M89.0984,-143.8314C93.7877,-135.7925 99.4028,-126.1666 104.5798,-117.2918"/>
<polygon fill="#000000" stroke="#000000" points="107.7434,-118.8146 109.7589,-108.4133 101.6969,-115.2875 107.7434,-118.8146"/>
</g>
<!-- ToB后台 -->
<g id="node4" class="node">
<title>ToB后台</title>
<polygon fill="#b2dfee" stroke="#b2dfee" points="73,-36 0,-36 0,0 73,0 73,-36"/>
<text text-anchor="middle" x="36.5" y="-14.3" font-family="Times,serif" font-size="14.00" fill="#000000">ToB后台</text>
</g>
<!-- ToB前台&#45;&gt;ToB后台 -->
<g id="edge3" class="edge">
<title>ToB前台&#45;&gt;ToB后台</title>
<path fill="none" stroke="#000000" d="M36.5,-71.8314C36.5,-64.131 36.5,-54.9743 36.5,-46.4166"/>
<polygon fill="#000000" stroke="#000000" points="40.0001,-46.4132 36.5,-36.4133 33.0001,-46.4133 40.0001,-46.4132"/>
</g>
</g>
</svg>
